<svg width="298" height="59" viewBox="0 0 298 59" fill="none" xmlns="http://www.w3.org/2000/svg">
<path d="M42.4943 48.8306L2.68603 21.5977C-1.34805 18.8381 0.0232717 13.0922 5.05367 11.741L47.3627 0.352723C48.259 0.0320001 49.2194 -0.0721106 50.1644 0.0490339C51.1093 0.170178 52.0115 0.513083 52.796 1.04929C53.5805 1.58549 54.2248 2.29953 54.6753 3.13215C55.1259 3.96476 55.3697 4.89194 55.3865 5.83672L52.8791 44.4557C52.5817 49.0397 46.5284 51.5902 42.4943 48.8306Z" fill="#E9327C"/>
<path d="M29.8684 55.5532L6.41608 10.0681C5.87999 9.02758 5.64408 7.8604 5.73438 6.69531C5.82467 5.53023 6.23765 4.41251 6.92779 3.46541C7.61792 2.51831 8.55839 1.77863 9.64548 1.32795C10.7326 0.877261 11.924 0.733076 13.0885 0.91129L56.5514 7.56382C57.5521 7.717 58.5018 8.10354 59.3225 8.69167C60.1431 9.27979 60.8113 10.0527 61.2721 10.9468C61.7328 11.841 61.973 12.8308 61.9729 13.835C61.9727 14.8391 61.7322 15.8289 61.2712 16.7229L41.2494 55.5554C40.7118 56.5929 39.8961 57.4634 38.8921 58.0711C37.888 58.6788 36.7345 59.0002 35.5582 59C34.3819 58.9998 33.2285 58.6779 32.2247 58.0698C31.2209 57.4617 30.4056 56.5909 29.8684 55.5532Z" fill="#1DACE3"/>
<path d="M55.28 7.36843L33.614 4.05206L7.01303 11.2151L17.6308 31.8153L42.4943 48.8307C43.0429 49.2018 43.6462 49.4862 44.2828 49.6735L53.7267 31.3576L55.28 7.36843Z" fill="#3A68B8"/>
<path d="M165.023 12.6849C165.023 11.8862 165.262 11.1055 165.71 10.4414C166.157 9.77734 166.793 9.25975 167.537 8.95411C168.281 8.64847 169.1 8.56851 169.889 8.72432C170.679 8.88014 171.405 9.26474 171.974 9.82949C172.544 10.3942 172.932 11.1138 173.089 11.8971C173.246 12.6804 173.165 13.4924 172.857 14.2302C172.549 14.9681 172.027 15.5988 171.357 16.0425C170.688 16.4862 169.9 16.7231 169.095 16.7231C168.019 16.7122 166.989 16.2832 166.228 15.5283C165.467 14.7733 165.034 13.7525 165.023 12.6849ZM165.702 18.6971H172.49V41.1304H165.702V18.6971Z" fill="white"/>
<path d="M201.803 29.9139C201.881 31.3967 201.664 32.8803 201.163 34.2795C200.661 35.6786 199.886 36.9656 198.881 38.0666C197.877 39.1675 196.662 40.0605 195.308 40.6944C193.954 41.3282 192.487 41.6904 190.992 41.7599C189.734 41.8279 188.476 41.6174 187.31 41.144C186.144 40.6705 185.099 39.9458 184.251 39.0223V50.1048H177.465V18.6972H184.251V20.8055C185.099 19.8824 186.145 19.1581 187.311 18.685C188.477 18.2119 189.734 18.0019 190.992 18.0701C192.487 18.1394 193.954 18.5012 195.308 19.1348C196.662 19.7685 197.876 20.6613 198.881 21.7621C199.886 22.8628 200.661 24.1497 201.163 25.5487C201.664 26.9477 201.881 28.4312 201.803 29.9139ZM195.017 29.9139C194.99 28.8636 194.652 27.8444 194.044 26.9839C193.436 26.1233 192.586 25.4597 191.6 25.076C190.614 24.6924 189.535 24.6057 188.5 24.8269C187.464 25.048 186.517 25.5672 185.777 26.3195C185.038 27.0717 184.538 28.0236 184.342 29.0559C184.145 30.0883 184.259 31.1553 184.671 32.1234C185.083 33.0915 185.773 33.9176 186.656 34.4985C187.538 35.0794 188.574 35.3892 189.634 35.3891C190.361 35.4216 191.087 35.3011 191.765 35.0356C192.442 34.7701 193.055 34.3655 193.563 33.8484C194.072 33.3314 194.464 32.7135 194.714 32.0354C194.965 31.3573 195.068 30.6343 195.017 29.9139Z" fill="white"/>
<path d="M222.748 34.3966C222.748 39.5571 218.224 41.7556 213.337 41.7556C211.364 41.9327 209.381 41.5184 207.648 40.5662C205.914 39.6141 204.508 38.1678 203.612 36.4146L209.492 33.0961C209.731 33.9065 210.243 34.6109 210.943 35.0916C211.643 35.5722 212.488 35.8 213.337 35.7368C214.966 35.7368 215.778 35.2417 215.778 34.346C215.778 31.8769 204.65 33.1797 204.65 25.4158C204.65 20.526 208.811 18.0591 213.526 18.0591C215.295 18.004 217.046 18.4203 218.597 19.2644C220.148 20.1085 221.443 21.3497 222.346 22.8587L216.557 25.955C216.304 25.3661 215.881 24.8642 215.342 24.512C214.803 24.1598 214.172 23.9728 213.526 23.9744C212.35 23.9744 211.627 24.4145 211.627 25.231C211.62 27.8057 222.748 26.1002 222.748 34.3966Z" fill="white"/>
<path d="M247.549 18.6968V41.1301H240.763V39.0175C239.98 39.9482 238.984 40.6814 237.86 41.1573C236.735 41.6331 235.513 41.838 234.293 41.7551C229.724 41.7551 225.834 38.5246 225.834 32.4662V18.6968H232.62V31.4847C232.563 32.0194 232.624 32.56 232.799 33.0689C232.974 33.5778 233.259 34.0427 233.633 34.4313C234.008 34.8199 234.464 35.1228 234.969 35.3189C235.473 35.515 236.015 35.5997 236.556 35.5669C239.044 35.5669 240.772 34.1321 240.772 30.9456V18.6968H247.549Z" fill="white"/>
<path d="M286.443 27.3538V41.1298H279.658V27.9392C279.658 25.6967 278.57 24.2597 276.4 24.2597C274.137 24.2597 272.872 25.831 272.872 28.4784V41.1298H266.084V27.9392C266.084 25.6967 264.999 24.2597 262.827 24.2597C260.566 24.2597 259.299 25.831 259.299 28.4784V41.1298H252.513V18.6965H259.31V20.7519C260.013 19.8367 260.936 19.1108 261.995 18.6407C263.054 18.1705 264.215 17.9711 265.372 18.0605C266.534 18.0042 267.69 18.2472 268.729 18.7659C269.767 19.2847 270.653 20.0614 271.299 21.0204C272.051 20.017 273.047 19.2191 274.195 18.7015C275.342 18.1838 276.604 17.9633 277.86 18.0605C283.053 18.0693 286.443 21.7466 286.443 27.3538Z" fill="white"/>
<path d="M292.193 18.5581C294.975 18.5581 297.23 16.3216 297.23 13.5627C297.23 10.8038 294.975 8.56723 292.193 8.56723C289.411 8.56723 287.156 10.8038 287.156 13.5627C287.156 16.3216 289.411 18.5581 292.193 18.5581Z" fill="white"/>
<path d="M72.3773 8.37811H79.1651V41.1302H72.3773V8.37811ZM83.0083 29.9136C83.0009 27.5617 83.6973 25.2605 85.0094 23.3013C86.3215 21.3422 88.1903 19.8132 90.3791 18.9081C92.5679 18.0029 94.9784 17.7622 97.3052 18.2165C99.632 18.6708 101.771 19.7996 103.45 21.4601C105.13 23.1205 106.275 25.2378 106.74 27.544C107.206 29.8502 106.97 32.2415 106.065 34.4151C105.159 36.5887 103.623 38.4468 101.652 39.7543C99.6804 41.0617 97.3623 41.7596 94.9908 41.7596C93.4157 41.7763 91.8531 41.4816 90.3942 40.8927C88.9353 40.3037 87.6093 39.4324 86.4937 38.3295C85.3782 37.2267 84.4954 35.9144 83.897 34.4694C83.2985 33.0244 82.9965 31.4757 83.0083 29.9136ZM100.201 29.9136C100.174 28.899 99.8466 27.9148 99.2589 27.084C98.6712 26.2532 97.8495 25.6127 96.8967 25.2427C95.9438 24.8726 94.9021 24.7893 93.9018 25.0034C92.9015 25.2174 91.9871 25.7192 91.2728 26.4459C90.5586 27.1727 90.0763 28.0922 89.8862 29.0894C89.6962 30.0866 89.8068 31.1172 90.2043 32.0524C90.6018 32.9876 91.2686 33.7857 92.1211 34.3471C92.9736 34.9084 93.9741 35.208 94.9974 35.2083C95.6982 35.2281 96.3954 35.1037 97.0453 34.843C97.6951 34.5822 98.2834 34.1908 98.7731 33.6933C99.2629 33.1959 99.6433 32.6032 99.8906 31.9527C100.138 31.3021 100.247 30.6078 100.21 29.9136H100.201ZM134.038 18.6903V40.0035C134.038 47.5407 128.111 50.725 122.095 50.725C119.978 50.8835 117.857 50.4608 115.966 49.5032C114.075 48.5455 112.486 47.09 111.373 45.296L117.163 41.9753C117.63 42.9115 118.374 43.684 119.296 44.1894C120.218 44.6947 121.274 44.9088 122.322 44.8031C122.991 44.8937 123.672 44.8342 124.314 44.6289C124.957 44.4237 125.545 44.078 126.034 43.6173C126.524 43.1566 126.904 42.5928 127.144 41.9673C127.385 41.3418 127.481 40.6707 127.425 40.0035V37.9393C126.631 38.9033 125.619 39.6692 124.472 40.1756C123.325 40.6819 122.074 40.9147 120.82 40.8551C117.834 40.7631 115.001 39.5221 112.922 37.395C110.843 35.2679 109.68 32.4217 109.68 29.4591C109.68 26.4966 110.843 23.6504 112.922 21.5233C115.001 19.3961 117.834 18.1551 120.82 18.0631C122.074 18.0036 123.325 18.2364 124.472 18.7427C125.619 19.2491 126.631 20.015 127.425 20.979V18.6903H134.038ZM127.434 29.458C127.479 28.3745 127.196 27.3025 126.621 26.3798C126.047 25.4571 125.207 24.726 124.21 24.2804C123.213 23.8347 122.105 23.695 121.027 23.8791C119.95 24.0633 118.952 24.5628 118.163 25.3136C117.374 26.0644 116.83 27.0321 116.6 28.0923C116.37 29.1524 116.465 30.2566 116.873 31.2628C117.28 32.269 117.982 33.1312 118.888 33.7386C119.794 34.3461 120.862 34.6709 121.956 34.6714C122.669 34.7211 123.384 34.6222 124.056 34.3812C124.728 34.1402 125.342 33.7623 125.858 33.2719C126.374 32.7815 126.781 32.1894 127.053 31.5337C127.324 30.878 127.454 30.1732 127.434 29.4646V29.458ZM137.881 29.8982C137.874 27.5463 138.57 25.245 139.882 23.2859C141.194 21.3268 143.063 19.7978 145.252 18.8926C147.441 17.9875 149.851 17.7468 152.178 18.2011C154.505 18.6554 156.644 19.7842 158.323 21.4447C160.003 23.1051 161.148 25.2224 161.613 27.5286C162.078 29.8348 161.843 32.2261 160.938 34.3997C160.032 36.5733 158.496 38.4314 156.525 39.7389C154.553 41.0463 152.235 41.7442 149.864 41.7442C148.29 41.7609 146.729 41.4667 145.271 40.8787C143.813 40.2907 142.488 39.4207 141.372 38.3195C140.257 37.2183 139.374 35.9079 138.774 34.4647C138.175 33.0215 137.871 31.4744 137.881 29.9136V29.8982ZM155.074 29.8982C155.048 28.883 154.72 27.8981 154.132 27.0666C153.545 26.2351 152.723 25.5939 151.769 25.2234C150.816 24.8529 149.773 24.7694 148.773 24.9835C147.772 25.1975 146.857 25.6996 146.142 26.4268C145.427 27.154 144.945 28.0741 144.755 29.0719C144.564 30.0698 144.675 31.101 145.073 32.0367C145.471 32.9723 146.139 33.7708 146.992 34.3322C147.845 34.8936 148.846 35.193 149.87 35.1929C150.569 35.2113 151.264 35.0864 151.912 34.8261C152.559 34.5657 153.146 34.1755 153.634 33.6799C154.123 33.1842 154.503 32.5939 154.75 31.9458C154.998 31.2977 155.108 30.6058 155.074 29.9136V29.8982Z" fill="white"/>
</svg>
