<svg width="209" height="59" viewBox="0 0 209 59" fill="none" xmlns="http://www.w3.org/2000/svg">
<path d="M29.7499 0C25.8436 0 21.9755 0.763123 18.3666 2.24554C14.7577 3.72813 11.4787 5.90101 8.71641 8.6403C5.95431 11.3797 3.76333 14.6317 2.26839 18.2108C0.773629 21.7899 0.00415039 25.6261 0.00415039 29.5C0.00415039 33.3739 0.773629 37.2101 2.26839 40.7892C3.76333 44.3683 5.95431 47.6203 8.71641 50.3597C11.4787 53.099 14.7577 55.2719 18.3666 56.7545C21.9755 58.2369 25.8436 59 29.7499 59V44.25C27.7967 44.25 25.8627 43.8685 24.0582 43.1271C22.2538 42.3859 20.6142 41.2995 19.2331 39.9298C17.8521 38.5602 16.7566 36.9342 16.0092 35.1446C15.2617 33.3551 14.877 31.4371 14.877 29.5C14.877 27.5629 15.2617 25.6449 16.0092 23.8554C16.7566 22.0658 17.8521 20.4398 19.2331 19.0702C20.6142 17.7005 22.2538 16.6141 24.0582 15.8729C25.8627 15.1315 27.7967 14.75 29.7499 14.75V0Z" fill="#0F52FF"/>
<path d="M29.7499 39.3333C35.2259 39.3333 39.6651 34.9308 39.6651 29.5C39.6651 24.0692 35.2259 19.6667 29.7499 19.6667C24.2738 19.6667 19.8346 24.0692 19.8346 29.5C19.8346 34.9308 24.2738 39.3333 29.7499 39.3333Z" fill="#0F52FF"/>
<path d="M0.00415039 29.5C0.00415039 33.3739 0.773629 37.2101 2.26839 40.7892C3.76333 44.3683 5.95431 47.6203 8.71641 50.3597C11.4787 53.099 14.7577 55.2719 18.3666 56.7545C21.9755 58.2369 25.8436 59 29.7499 59C33.6561 59 37.5242 58.2369 41.1331 56.7545C44.742 55.2719 48.021 53.099 50.7833 50.3597C53.5454 47.6203 55.7364 44.3683 57.2313 40.7892C58.7261 37.2101 59.4956 33.3739 59.4956 29.5H44.6227C44.6227 31.4371 44.2381 33.3551 43.4905 35.1446C42.7431 36.9342 41.6476 38.5602 40.2666 39.9298C38.8855 41.2995 37.2459 42.3859 35.4415 43.1271C33.637 43.8685 31.703 44.25 29.7499 44.25C27.7967 44.25 25.8627 43.8685 24.0582 43.1271C22.2538 42.3859 20.6142 41.2995 19.2331 39.9298C17.8521 38.5602 16.7566 36.9342 16.0092 35.1446C15.2617 33.3551 14.877 31.4371 14.877 29.5H0.00415039Z" fill="#5BD0F4"/>
<path d="M39.6652 29.5001C39.6652 26.8921 38.6205 24.391 36.7611 22.5469C34.9016 20.7027 32.3797 19.6667 29.75 19.6667C27.1203 19.6667 24.5984 20.7027 22.7388 22.5469C20.8793 24.391 19.8346 26.8921 19.8346 29.5001H29.75H39.6652Z" fill="#5BD0F4"/>
<path d="M75.0305 18.4164H71.3361V38.7714H75.0305V18.4164Z" fill="#0F52FF"/>
<path d="M77.443 31.5605C77.443 36.2712 80.727 39.179 85.0664 39.179C89.4059 39.179 92.6898 36.2712 92.6898 31.5605C92.6898 26.8497 89.4059 23.9419 85.0664 23.9419C80.727 23.9419 77.443 26.8497 77.443 31.5605ZM81.1375 31.5605C81.1375 28.7689 82.7794 27.1405 85.0664 27.1405C87.3535 27.1405 88.9954 28.7689 88.9954 31.5605C88.9954 34.352 87.3535 35.9804 85.0664 35.9804C82.7794 35.9804 81.1375 34.352 81.1375 31.5605Z" fill="#0F52FF"/>
<path d="M105.892 24.349V26.2971H105.599C104.719 25.0469 103.312 23.9419 100.79 23.9419C97.3301 23.9419 94.2221 26.8497 94.2221 31.3278C94.2221 35.8059 97.3301 38.7138 100.79 38.7138C103.312 38.7138 104.719 37.5796 105.54 36.4456H105.833V37.8414C105.833 40.633 104.191 41.9124 101.787 41.9124C99.3826 41.9124 98.1511 40.633 97.6526 38.9754L94.3394 40.4003C95.1018 42.5811 97.3301 44.9948 101.846 44.9948C106.478 44.9948 109.528 42.5811 109.528 37.9286V24.349H105.892ZM101.904 35.5733C99.6172 35.5733 97.9166 33.9449 97.9166 31.3278C97.9166 28.7108 99.6172 27.0823 101.904 27.0823C104.191 27.0823 105.892 28.7108 105.892 31.3278C105.892 33.9449 104.191 35.5733 101.904 35.5733Z" fill="#0F52FF"/>
<path d="M111.918 31.5605C111.918 36.2712 115.202 39.179 119.541 39.179C123.881 39.179 127.164 36.2712 127.164 31.5605C127.164 26.8497 123.881 23.9419 119.541 23.9419C115.202 23.9419 111.918 26.8497 111.918 31.5605ZM115.612 31.5605C115.612 28.7689 117.254 27.1405 119.541 27.1405C121.828 27.1405 123.47 28.7689 123.47 31.5605C123.47 34.352 121.828 35.9804 119.541 35.9804C117.254 35.9804 115.612 34.352 115.612 31.5605Z" fill="#0F52FF"/>
<path d="M130.064 20.1611C130.064 21.6442 131.208 22.6618 132.675 22.6618C134.141 22.6618 135.284 21.6442 135.284 20.1611C135.284 18.6781 134.141 17.6603 132.675 17.6603C131.208 17.6603 130.064 18.6781 130.064 20.1611ZM134.521 24.3484H130.828V38.7713H134.521V24.3484Z" fill="#5BD0F4"/>
<path d="M137.813 44.5877H141.509V36.9109H141.801C142.622 38.074 144.029 39.179 146.552 39.179C150.011 39.179 153.12 36.2712 153.12 31.5605C153.12 26.8497 150.011 23.9419 146.552 23.9419C144.029 23.9419 142.622 25.0469 141.743 26.2973H141.449V24.349H137.813V44.5877ZM145.437 36.0386C143.151 36.0386 141.449 34.4102 141.449 31.5605C141.449 28.7108 143.151 27.0823 145.437 27.0823C147.725 27.0823 149.424 28.7108 149.424 31.5605C149.424 34.4102 147.725 36.0386 145.437 36.0386Z" fill="#5BD0F4"/>
<path d="M155.275 28.391C155.275 31.2407 157.679 32.2875 160.728 32.8691L161.491 33.0144C163.308 33.3633 164.129 33.7996 164.129 34.7301C164.129 35.6606 163.308 36.3875 161.609 36.3875C159.907 36.3875 158.53 35.6896 158.148 33.596L154.747 34.4683C155.246 37.4925 157.796 39.179 161.609 39.179C165.302 39.179 167.707 37.4635 167.707 34.4393C167.707 31.415 165.244 30.6009 161.96 29.9612L161.197 29.8157C159.673 29.525 158.852 29.1179 158.852 28.1583C158.852 27.286 159.615 26.7334 161.022 26.7334C162.43 26.7334 163.426 27.315 163.777 28.8852L167.121 27.8676C166.417 25.5413 164.277 23.9419 161.022 23.9419C157.562 23.9419 155.275 25.5413 155.275 28.391Z" fill="#5BD0F4"/>
<path d="M184.302 38.7714V24.3484H180.608V31.7925C180.608 34.4677 179.289 36.038 177.03 36.038C175.036 36.038 173.923 34.9621 173.923 32.7812V24.3484H170.228V32.9556C170.228 36.5324 172.487 39.004 175.888 39.004C178.555 39.004 179.787 37.8408 180.373 36.6195H180.666V38.7714H184.302Z" fill="#5BD0F4"/>
<path d="M187.579 24.3486V38.7716H191.274V30.1643C191.274 28.187 192.213 27.082 193.912 27.082C195.379 27.082 196.258 27.8962 196.258 29.4665V38.7716H199.953V30.1643C199.953 28.187 200.891 27.082 202.591 27.082C204.058 27.082 204.937 27.8962 204.937 29.4665V38.7716H208.632V29.292C208.632 25.8026 206.462 24.116 203.764 24.116C201.39 24.116 200.305 25.1628 199.601 26.3841H199.307C198.632 25.0175 197.431 24.116 195.32 24.116C193.209 24.116 192.065 25.0465 191.509 26.1515H191.215V24.3486H187.579Z" fill="#5BD0F4"/>
</svg>
