<svg width="215" height="59" viewBox="0 0 215 59" fill="none" xmlns="http://www.w3.org/2000/svg">
<path fill-rule="evenodd" clip-rule="evenodd" d="M106.751 6.43507C108.821 4.38236 112.177 4.38236 114.247 6.43507C116.317 8.48792 116.317 11.8162 114.247 13.869L101.627 26.3845C98.0038 21.5688 98.3974 14.7197 102.808 10.3457L106.751 6.43507Z" fill="#4F9E91"/>
<path fill-rule="evenodd" clip-rule="evenodd" d="M124.792 34.672C126.862 36.7247 126.862 40.0531 124.792 42.1058C122.723 44.1586 119.366 44.1586 117.296 42.1058L104.677 29.5904C109.533 25.9971 116.439 26.3873 120.849 30.7614L124.792 34.672Z" fill="#EBE1C5"/>
<path fill-rule="evenodd" clip-rule="evenodd" d="M96.3197 52.5645C94.2499 54.6173 90.8938 54.6173 88.8239 52.5645C86.754 50.5116 86.754 47.1834 88.8239 45.1305L101.444 32.6152C105.067 37.4309 104.673 44.28 100.263 48.6539L96.3197 52.5645Z" fill="#EBCC6E"/>
<path fill-rule="evenodd" clip-rule="evenodd" d="M78.2787 24.3266C76.2087 22.2738 76.2087 18.9456 78.2787 16.8927C80.3486 14.8398 83.7046 14.8398 85.7745 16.8927L98.3943 29.4082C93.5384 33.0015 86.6322 32.6111 82.2218 28.2372L78.2787 24.3266Z" fill="#ED834E"/>
<path fill-rule="evenodd" clip-rule="evenodd" d="M103.931 51.0315C106.983 47.666 108.402 43.3595 108.186 39.1195L114.247 45.1302C114.262 45.1451 114.277 45.16 114.293 45.175V49.4662C114.293 52.3693 111.919 54.7227 108.992 54.7227C106.615 54.7227 104.603 53.1701 103.931 51.0315Z" fill="#ED834E"/>
<path fill-rule="evenodd" clip-rule="evenodd" d="M79.8243 31.8751C83.2177 34.9022 87.56 36.3091 91.8354 36.0956L85.7748 42.1063C85.7596 42.1212 85.7445 42.1363 85.7296 42.1512H81.4027C78.4754 42.1514 76.1023 39.7978 76.1023 36.8947C76.1023 34.5368 77.6679 32.5414 79.8243 31.8751Z" fill="#4F9E91"/>
<path fill-rule="evenodd" clip-rule="evenodd" d="M123.246 27.1248C119.853 24.0977 115.511 22.6909 111.236 22.9042L117.296 16.8937C117.311 16.8787 117.326 16.8636 117.341 16.8485H121.668C124.596 16.8485 126.969 19.2021 126.969 22.1052C126.969 24.4632 125.403 26.4586 123.246 27.1248Z" fill="#EBCC6E"/>
<path fill-rule="evenodd" clip-rule="evenodd" d="M99.1402 7.96787C96.0879 11.3332 94.6694 15.6397 94.8845 19.8798L88.824 13.8692C88.8088 13.8543 88.7937 13.8393 88.7785 13.8244V9.53318C88.7785 6.63007 91.1515 4.27649 94.0788 4.27649C96.4565 4.27649 98.4684 5.82922 99.1402 7.96787Z" fill="#EBE1C5"/>
<path fill-rule="evenodd" clip-rule="evenodd" d="M94.079 0C88.77 0 84.4662 4.26828 84.4662 9.5334V11.3876C81.2722 10.56 77.7325 11.3872 75.2295 13.8694C71.4755 17.5925 71.4755 23.6287 75.2295 27.3517L76.5515 28.6628C73.703 30.3174 71.7899 33.3846 71.7899 36.8949C71.7899 42.16 76.0937 46.4283 81.4027 46.4283H83.2722C82.4377 49.5959 83.2718 53.1064 85.7747 55.5885C89.5288 59.3115 95.6153 59.3115 99.3693 55.5885L103.312 51.678C106.791 48.2284 108.415 43.6363 108.186 39.1196L114.247 45.1303C118.001 48.8533 124.088 48.8533 127.842 45.1303C131.596 41.4072 131.596 35.371 127.842 31.6481L126.52 30.3372C129.368 28.6826 131.281 25.6154 131.281 22.1051C131.281 16.84 126.977 12.5717 121.668 12.5717H119.799C120.633 9.40397 119.799 5.89349 117.296 3.41122C113.542 -0.31182 107.456 -0.31182 103.702 3.41122L99.7586 7.32183C96.2802 10.7715 94.6556 15.3634 94.8849 19.8801L88.8242 13.8694C88.8089 13.8545 88.7939 13.8395 88.7787 13.8246V9.5334C88.7787 6.63029 91.1517 4.27686 94.079 4.27686C96.4566 4.27686 98.4686 5.82944 99.1404 7.96809C99.3395 7.74858 99.5455 7.53306 99.7585 7.32183L102.38 4.72225C100.711 1.89724 97.6186 0 94.079 0ZM117.341 16.8486C117.326 16.8635 117.311 16.8786 117.296 16.8935L111.236 22.904C115.511 22.6907 119.853 24.0975 123.246 27.1247C125.403 26.4584 126.969 24.463 126.969 22.1051C126.969 19.202 124.596 16.8486 121.668 16.8486H117.341ZM85.7294 42.1514C85.7444 42.1363 85.7595 42.1213 85.7747 42.1063L91.8353 36.0957C87.5599 36.3091 83.2178 34.9022 79.8244 31.8753C77.6679 32.5416 76.1022 34.5369 76.1022 36.8949C76.1022 39.798 78.4754 42.1514 81.4027 42.1514H85.7294ZM79.6591 31.7259C79.4946 31.5752 79.3325 31.4206 79.1727 31.2622V31.2623C79.3325 31.4208 79.4946 31.5752 79.6591 31.7259ZM108.992 59C105.452 59 102.36 57.1026 100.691 54.2776L103.312 51.678C103.525 51.4668 103.731 51.2513 103.931 51.0318C104.602 53.1704 106.614 54.7231 108.992 54.7231C111.919 54.7231 114.292 52.3697 114.292 49.4666V45.1754C115.535 46.3912 117.028 47.2035 118.605 47.6123V49.4666C118.605 54.7317 114.301 59 108.992 59ZM114.247 6.43533C112.177 4.38262 108.821 4.38262 106.751 6.43533L102.808 10.3459C98.3976 14.72 98.004 21.569 101.627 26.3848L114.247 13.8693C116.317 11.8164 116.317 8.48819 114.247 6.43533ZM124.792 42.1062C126.862 40.0533 126.862 36.7251 124.792 34.6722L120.849 30.7616C116.439 26.3877 109.532 25.9974 104.676 29.5907L117.296 42.1062C119.366 44.159 122.723 44.159 124.792 42.1062ZM96.3199 52.5644C94.2499 54.6172 90.894 54.6172 88.824 52.5644C86.7542 50.5115 86.7542 47.1833 88.824 45.1304L101.444 32.6149C105.067 37.4307 104.673 44.2799 100.263 48.6538L96.3199 52.5644ZM78.2788 16.8935C76.209 18.9464 76.209 22.2746 78.2788 24.3275L82.222 28.2381C86.6325 32.612 93.5386 33.0023 98.3944 29.409L85.7747 16.8935C83.7048 14.8408 80.3488 14.8408 78.2788 16.8935Z" fill="#3D3A2C"/>
<path d="M0.638733 19.2781H5.35288V33.8057H13.4495V37.7414H0.638733V19.2781Z" fill="white"/>
<path d="M22.009 38.1376C20.4287 38.1376 19.0436 37.8558 17.854 37.2924C16.6643 36.7112 15.7411 35.9188 15.0841 34.9152C14.4449 33.8938 14.1253 32.7228 14.1253 31.402C14.1253 30.0814 14.4449 28.9192 15.0841 27.9155C15.7411 26.8941 16.6643 26.1017 17.854 25.5383C19.0436 24.9571 20.4287 24.6666 22.009 24.6666C23.5892 24.6666 24.9741 24.9571 26.1638 25.5383C27.3534 26.1017 28.2679 26.8941 28.907 27.9155C29.564 28.9192 29.8925 30.0814 29.8925 31.402C29.8925 32.7228 29.564 33.8938 28.907 34.9152C28.2679 35.9188 27.3534 36.7112 26.1638 37.2924C24.9741 37.8558 23.5892 38.1376 22.009 38.1376ZM22.009 34.5189C22.95 34.5189 23.6957 34.246 24.2461 33.7001C24.8144 33.1366 25.0984 32.3706 25.0984 31.402C25.0984 30.4336 24.8144 29.6764 24.2461 29.1305C23.6957 28.567 22.95 28.2853 22.009 28.2853C21.0678 28.2853 20.3132 28.567 19.7451 29.1305C19.1946 29.6764 18.9194 30.4336 18.9194 31.402C18.9194 32.3706 19.1946 33.1366 19.7451 33.7001C20.3132 34.246 21.0678 34.5189 22.009 34.5189Z" fill="white"/>
<path d="M38.6974 43.8166C37.8451 43.8166 36.9839 43.7374 36.1139 43.5789C35.2616 43.4204 34.5247 43.2091 33.9033 42.9449V39.7225C35.3059 40.3211 36.904 40.6205 38.6974 40.6205C39.9935 40.6205 40.9257 40.3563 41.4939 39.8281C42.0799 39.2999 42.3728 38.525 42.3728 37.5036V36.7377C41.858 37.1779 41.2187 37.5212 40.4552 37.7678C39.7094 38.0144 38.9104 38.1376 38.0581 38.1376C36.7087 38.1376 35.5191 37.8558 34.4892 37.2924C33.4594 36.7288 32.6515 35.9364 32.0656 34.9152C31.4973 33.8938 31.2133 32.7228 31.2133 31.402C31.2133 30.0638 31.4973 28.884 32.0656 27.8627C32.6337 26.8413 33.4327 26.0576 34.4626 25.5118C35.4924 24.9484 36.6732 24.6666 38.0049 24.6666C39.8338 24.6666 41.3429 25.2213 42.5326 26.3307V25.0627H47.0604V36.8698C47.0604 39.0709 46.3767 40.7791 45.0096 41.9941C43.6602 43.2091 41.5561 43.8166 38.6974 43.8166ZM39.23 34.5454C39.958 34.5454 40.6061 34.3605 41.1742 33.9907C41.7425 33.6208 42.142 33.1278 42.3728 32.5114V30.2928C42.1242 29.6764 41.7158 29.1921 41.1477 28.8399C40.5794 28.4702 39.9403 28.2853 39.23 28.2853C38.2713 28.2853 37.4988 28.567 36.9129 29.1305C36.3269 29.6764 36.034 30.4247 36.034 31.3757C36.034 32.3441 36.3269 33.1189 36.9129 33.7001C37.4988 34.2636 38.2713 34.5454 39.23 34.5454Z" fill="white"/>
<path d="M56.1333 38.1376C54.553 38.1376 53.1681 37.8558 51.9784 37.2924C50.7888 36.7112 49.8654 35.9188 49.2085 34.9152C48.5692 33.8938 48.2496 32.7228 48.2496 31.402C48.2496 30.0814 48.5692 28.9192 49.2085 27.9155C49.8654 26.8941 50.7888 26.1017 51.9784 25.5383C53.1681 24.9571 54.553 24.6666 56.1333 24.6666C57.7135 24.6666 59.0984 24.9571 60.2881 25.5383C61.4777 26.1017 62.3922 26.8941 63.0315 27.9155C63.6883 28.9192 64.0169 30.0814 64.0169 31.402C64.0169 32.7228 63.6883 33.8938 63.0315 34.9152C62.3922 35.9188 61.4777 36.7112 60.2881 37.2924C59.0984 37.8558 57.7135 38.1376 56.1333 38.1376ZM56.1333 34.5189C57.0743 34.5189 57.82 34.246 58.3706 33.7001C58.9387 33.1366 59.2228 32.3706 59.2228 31.402C59.2228 30.4336 58.9387 29.6764 58.3706 29.1305C57.82 28.567 57.0743 28.2853 56.1333 28.2853C55.1923 28.2853 54.4375 28.567 53.8694 29.1305C53.3189 29.6764 53.0437 30.4336 53.0437 31.402C53.0437 32.3706 53.3189 33.1366 53.8694 33.7001C54.4375 34.246 55.1923 34.5189 56.1333 34.5189Z" fill="white"/>
<path d="M139.201 19.2781H143.916V37.7414H139.201V19.2781Z" fill="white"/>
<path d="M146.303 25.0627H150.831V26.3307C152.02 25.2213 153.529 24.6666 155.358 24.6666C156.69 24.6666 157.871 24.9484 158.9 25.5118C159.931 26.0576 160.729 26.8413 161.297 27.8627C161.865 28.8664 162.15 30.0374 162.15 31.3757C162.15 32.6963 161.865 33.8762 161.297 34.9152C160.729 35.9364 159.931 36.7288 158.9 37.2924C157.889 37.8558 156.708 38.1376 155.358 38.1376C154.506 38.1376 153.689 38.0055 152.909 37.7414C152.145 37.4949 151.505 37.1514 150.991 36.7112V43.526H146.303V25.0627ZM154.133 34.5189C155.092 34.5189 155.865 34.2372 156.45 33.6737C157.036 33.1102 157.33 32.3441 157.33 31.3757C157.33 30.4071 157.036 29.65 156.45 29.1041C155.865 28.5406 155.092 28.2588 154.133 28.2588C153.423 28.2588 152.783 28.4437 152.215 28.8135C151.647 29.1657 151.24 29.65 150.991 30.2663V32.5114C151.24 33.1278 151.647 33.6208 152.215 33.9907C152.783 34.3429 153.423 34.5189 154.133 34.5189Z" fill="white"/>
<path d="M169.138 38.1376C168.109 38.1376 167.035 38.032 165.916 37.8206C164.798 37.627 163.909 37.3452 163.252 36.9754V33.568C163.98 33.9907 164.85 34.3429 165.862 34.6246C166.892 34.8887 167.833 35.0208 168.686 35.0208C169.306 35.0208 169.76 34.9767 170.043 34.8887C170.328 34.8007 170.47 34.6246 170.47 34.3605C170.47 34.1491 170.373 33.9818 170.177 33.8586C170 33.7177 169.661 33.5768 169.165 33.4359C168.686 33.2775 168.127 33.1102 167.487 32.934C166.404 32.6171 165.552 32.2913 164.93 31.9567C164.308 31.6221 163.847 31.1995 163.545 30.6889C163.243 30.1783 163.093 29.5356 163.093 28.7607C163.093 27.3871 163.634 26.3659 164.717 25.6967C165.818 25.0099 167.318 24.6666 169.218 24.6666C170.142 24.6666 171.11 24.7635 172.121 24.9571C173.152 25.1509 173.923 25.4062 174.439 25.7232V29.0777C173.906 28.7255 173.195 28.4349 172.307 28.206C171.438 27.977 170.62 27.8627 169.857 27.8627C169.254 27.8627 168.783 27.9242 168.446 28.0475C168.109 28.1532 167.94 28.3468 167.94 28.6286C167.94 28.8928 168.109 29.0953 168.446 29.2362C168.783 29.377 169.387 29.5532 170.257 29.7644C170.825 29.9054 171.065 29.9669 170.975 29.9493C172.112 30.2487 172.991 30.5833 173.613 30.9531C174.234 31.3229 174.669 31.7631 174.918 32.2737C175.185 32.7668 175.317 33.4007 175.317 34.1756C175.317 35.3906 174.785 36.359 173.72 37.081C172.671 37.7854 171.144 38.1376 169.138 38.1376Z" fill="white"/>
<path d="M182.316 38.1378C180.559 38.1378 179.236 37.6535 178.348 36.685C177.479 35.7164 177.043 34.4399 177.043 32.855V25.0628H181.731V32.3267C181.731 33.7883 182.396 34.519 183.728 34.519C184.332 34.519 184.883 34.3782 185.379 34.0964C185.876 33.8146 186.285 33.4009 186.604 32.855V25.0628H191.292V37.7415H186.765V36.368C186.215 36.9491 185.548 37.3893 184.766 37.6887C183.986 37.9881 183.169 38.1378 182.316 38.1378Z" fill="white"/>
<path d="M193.692 25.0627H198.034V26.4363C198.566 25.8729 199.179 25.4414 199.871 25.142C200.563 24.825 201.3 24.6666 202.082 24.6666C203.041 24.6666 203.805 24.8074 204.373 25.0892C204.959 25.371 205.429 25.7936 205.784 26.357C206.316 25.8288 206.965 25.4149 207.729 25.1157C208.492 24.8163 209.265 24.6666 210.045 24.6666C211.732 24.6666 212.931 25.0981 213.641 25.9609C214.351 26.8061 214.706 28.0299 214.706 29.6323V37.7414H210.232V30.2928C210.232 29.5884 210.099 29.0777 209.832 28.7607C209.566 28.4437 209.122 28.2853 208.501 28.2853C207.702 28.2853 207.053 28.567 206.556 29.1305C206.574 29.4298 206.583 29.8878 206.583 30.504V37.7414H202.109V30.1079C202.109 29.4563 201.994 28.9896 201.763 28.7079C201.531 28.4261 201.123 28.2853 200.538 28.2853C199.631 28.2853 198.851 28.7871 198.193 29.7909V37.7414H193.692V25.0627Z" fill="white"/>
</svg>
