<svg width="220" height="59" viewBox="0 0 220 59" fill="none" xmlns="http://www.w3.org/2000/svg">
<path d="M18.3379 56.3024L12.3291 45.9806L21.1474 30.8745L26.7511 40.501L59.8309 40.4833L50.4444 56.4448L18.3379 56.3024Z" fill="#FFAD64"/>
<path d="M65.7375 30.2346L59.7287 40.5562L42.1283 40.5357L47.7326 30.9094L31.1774 2.50699L49.8089 2.58806L65.7375 30.2346Z" fill="#ADD4D3"/>
<path d="M19.2637 2.45129H31.2813L40.0635 17.5783L28.8552 17.5779L12.3309 45.998L3.08588 29.9554L19.2637 2.45129Z" fill="#FB8351"/>
<path fill-rule="evenodd" clip-rule="evenodd" d="M32.7466 0.0616566L32.7107 0H17.844L0.231689 29.9431L12.3216 50.9223L12.3364 50.8969L16.9068 58.7478L51.8605 58.9029L64.1355 38.0295H64.0537L68.5883 30.2404L51.247 0.142154L32.7466 0.0616566ZM44.247 20.0302H44.3397L35.6005 4.97739L48.3706 5.03291L62.8867 30.2277L58.3431 38.0327L46.4359 38.0389L50.5876 30.9081L44.247 20.0302ZM29.7191 4.90318L35.6781 15.1267L27.4275 15.1264L13.3024 39.4199L12.3389 41.0706L5.94075 29.9681L20.6837 4.90318H29.7191ZM23.9898 30.8543L30.2836 20.0297L38.5362 20.03L44.8776 30.9095L40.7252 38.0421L28.1779 38.0488L23.9898 30.8543ZM15.1891 45.9906L17.5835 41.8725L21.1442 35.7729L25.3242 42.9535L37.8696 42.9468L37.8493 42.9816L55.4877 43.0023L49.028 53.987L19.7687 53.8572L15.1891 45.9906Z" fill="#333237"/>
<path d="M82.9864 50.3734V38.8959H78.709V37.6074H88.903V38.8959H84.6254V50.3734H82.9864Z" fill="white"/>
<path d="M93.4574 50.5722C91.765 50.5722 90.4991 50.1691 89.6597 49.363C88.8201 48.5569 88.4005 47.3146 88.4005 45.6362C88.4005 44.1297 88.7602 42.947 89.4798 42.0879C90.2126 41.2157 91.3654 40.7795 92.9378 40.7795C93.8705 40.7795 94.6367 40.9514 95.2364 41.2951C95.8493 41.6253 96.3025 42.0879 96.5956 42.6826C96.902 43.2641 97.0553 43.9249 97.0553 44.6649V46.4292H90.0395C90.0927 47.1428 90.246 47.7044 90.4991 48.1142C90.7657 48.5238 91.1587 48.8211 91.6785 49.0062C92.2114 49.1779 92.9111 49.2638 93.7772 49.2638C94.7499 49.2638 95.6428 49.0987 96.4556 48.7683V50.037C96.0426 50.2088 95.5761 50.341 95.0565 50.4335C94.55 50.526 94.0171 50.5722 93.4574 50.5722ZM90.0395 45.2597H95.5961V44.4865C95.5961 43.72 95.3896 43.1319 94.9764 42.7223C94.5768 42.2994 93.9105 42.0879 92.9776 42.0879C91.845 42.0879 91.0722 42.3522 90.659 42.8809C90.246 43.4094 90.0395 44.2024 90.0395 45.2597Z" fill="white"/>
<path d="M103.935 50.5722C102.283 50.5722 101.056 50.1493 100.257 49.3035C99.4575 48.4446 99.0577 47.2353 99.0577 45.6759C99.0577 44.024 99.5107 42.795 100.417 41.9889C101.323 41.1827 102.542 40.7795 104.075 40.7795C104.701 40.7795 105.221 40.8258 105.634 40.9184C106.047 40.9976 106.447 41.1298 106.833 41.3148V42.6033C106.113 42.2597 105.294 42.0879 104.375 42.0879C103.202 42.0879 102.296 42.3655 101.656 42.9206C101.016 43.4623 100.697 44.3808 100.697 45.6759C100.697 46.9181 100.977 47.83 101.536 48.4115C102.096 48.9798 103.022 49.2638 104.315 49.2638C105.234 49.2638 106.08 49.0921 106.853 48.7485V50.0568C106.44 50.2287 105.994 50.3541 105.514 50.4335C105.048 50.526 104.521 50.5722 103.935 50.5722Z" fill="white"/>
<path d="M108.691 50.3734V37.0126H110.33V41.9883C110.769 41.6315 111.282 41.3408 111.869 41.1161C112.468 40.8913 113.161 40.779 113.947 40.779C115.093 40.779 115.953 41.0566 116.526 41.6117C117.099 42.1667 117.385 43.0389 117.385 44.2282V50.3734H115.747V44.2878C115.747 43.4684 115.56 42.9002 115.187 42.5829C114.827 42.2526 114.227 42.0874 113.388 42.0874C112.855 42.0874 112.302 42.2063 111.729 42.4442C111.169 42.6688 110.703 42.9663 110.33 43.3362V50.3734H108.691Z" fill="white"/>
<path d="M123.922 50.5721C122.59 50.5721 121.523 50.2813 120.724 49.6997C119.924 49.1183 119.525 48.3386 119.525 47.3606C119.525 46.462 119.805 45.6889 120.364 45.0413C120.924 44.3938 121.69 43.8189 122.663 43.3168C122.143 42.8014 121.703 42.319 121.344 41.8697C120.984 41.4204 120.804 40.8785 120.804 40.2442C120.804 39.4512 121.077 38.7838 121.623 38.2421C122.183 37.687 122.969 37.4095 123.982 37.4095C124.968 37.4095 125.734 37.6672 126.281 38.1825C126.827 38.6979 127.1 39.3851 127.1 40.2442C127.1 40.9578 126.907 41.5591 126.52 42.0481C126.134 42.5371 125.581 43.0326 124.862 43.5349L128.179 46.8849C128.405 46.3959 128.519 45.7748 128.519 45.0215V44.744H129.819V45.0215C129.819 45.537 129.758 46.0391 129.639 46.5281C129.519 47.0171 129.345 47.44 129.119 47.7968L130.918 49.6007L129.918 50.4927L128.319 48.9267C127.853 49.4949 127.247 49.9113 126.501 50.1756C125.754 50.4399 124.895 50.5721 123.922 50.5721ZM123.842 42.7419C124.468 42.3587 124.941 41.9953 125.261 41.6516C125.581 41.2948 125.741 40.8455 125.741 40.3037C125.741 39.8015 125.601 39.405 125.321 39.1143C125.055 38.8104 124.608 38.6584 123.982 38.6584C123.342 38.6584 122.876 38.817 122.583 39.1341C122.303 39.4512 122.163 39.8412 122.163 40.3037C122.163 40.7266 122.31 41.1164 122.603 41.4732C122.909 41.83 123.322 42.2529 123.842 42.7419ZM123.922 49.4024C124.695 49.4024 125.355 49.2901 125.901 49.0655C126.461 48.8275 126.933 48.4774 127.32 48.0149L123.662 44.3079C122.796 44.7044 122.15 45.1338 121.723 45.5964C121.31 46.0457 121.104 46.6206 121.104 47.3211C121.104 48.0082 121.37 48.5303 121.903 48.8871C122.436 49.2306 123.109 49.4024 123.922 49.4024Z" fill="#FB8351"/>
<path d="M79.3547 28.341V10.6649H84.5578V24.3885H92.5839V28.341H79.3547Z" fill="#FB8351"/>
<path d="M100.954 28.6157C98.3342 28.6157 96.3968 28.0392 95.1422 26.8864C93.9061 25.7336 93.288 24.0502 93.288 21.8361C93.288 19.6404 93.9153 17.9661 95.17 16.8133C96.4246 15.6422 98.3526 15.0566 100.954 15.0566C103.574 15.0566 105.511 15.6422 106.766 16.8133C108.039 17.9661 108.676 19.6404 108.676 21.8361C108.676 24.0502 108.049 25.7336 106.794 26.8864C105.539 28.0392 103.593 28.6157 100.954 28.6157ZM100.954 24.8553C101.803 24.8553 102.412 24.6175 102.781 24.1417C103.168 23.666 103.362 22.8974 103.362 21.8361C103.362 20.7932 103.168 20.0337 102.781 19.558C102.412 19.0639 101.803 18.8169 100.954 18.8169C100.124 18.8169 99.5242 19.0639 99.1552 19.558C98.7862 20.0337 98.6018 20.7932 98.6018 21.8361C98.6018 22.8974 98.7862 23.666 99.1552 24.1417C99.5242 24.6175 100.124 24.8553 100.954 24.8553Z" fill="#FB8351"/>
<path d="M116.382 33.1719C115.736 33.1719 115.035 33.1445 114.278 33.0895C113.522 33.053 112.802 32.9798 112.12 32.87C111.455 32.7603 110.902 32.6321 110.459 32.4857V29.192C110.957 29.3567 111.529 29.494 112.175 29.6037C112.839 29.7135 113.513 29.7959 114.195 29.8508C114.878 29.9056 115.505 29.9332 116.077 29.9332C117.055 29.9332 117.821 29.8782 118.374 29.7685C118.946 29.677 119.232 29.5031 119.232 29.2469C119.232 29.0274 119.14 28.881 118.956 28.8078C118.771 28.7528 118.421 28.7254 117.904 28.7254H114.444C113.098 28.7254 112.055 28.515 111.317 28.0941C110.598 27.655 110.238 27.0054 110.238 26.1454C110.238 24.9376 110.911 24.096 112.258 23.6203C111.502 23.2359 110.948 22.7511 110.598 22.1655C110.247 21.58 110.072 20.8389 110.072 19.9423C110.072 18.2588 110.644 17.0237 111.788 16.2368C112.95 15.4501 114.62 15.0566 116.797 15.0566C117.258 15.0566 117.775 15.0932 118.347 15.1664C118.919 15.2213 119.334 15.2763 119.592 15.3311H124.74L124.629 18.4601H122.886C123.218 18.881 123.384 19.3933 123.384 19.9972C123.384 21.333 122.987 22.3943 122.194 23.1811C121.419 23.9496 120.192 24.3339 118.513 24.3339C118.273 24.3339 118.015 24.3248 117.738 24.3064C117.461 24.2698 117.203 24.2424 116.963 24.224C116.557 24.2607 116.206 24.3339 115.911 24.4437C115.616 24.5534 115.468 24.7364 115.468 24.9926C115.468 25.1756 115.551 25.3037 115.718 25.3768C115.884 25.4318 116.114 25.4592 116.409 25.4592H119.426C120.773 25.4592 121.834 25.7703 122.609 26.3924C123.384 27.0146 123.771 27.9294 123.771 29.1372C123.771 30.418 123.172 31.4061 121.972 32.1014C120.773 32.8151 118.91 33.1719 116.382 33.1719ZM116.825 21.5068C117.636 21.5068 118.199 21.3695 118.513 21.0951C118.827 20.8206 118.983 20.3632 118.983 19.7227C118.983 19.0822 118.827 18.6156 118.513 18.3229C118.199 18.0302 117.636 17.8837 116.825 17.8837C116.068 17.8837 115.515 18.0302 115.164 18.3229C114.832 18.5974 114.666 19.0639 114.666 19.7227C114.666 20.3449 114.823 20.8023 115.136 21.0951C115.468 21.3695 116.031 21.5068 116.825 21.5068Z" fill="#FB8351"/>
<path d="M133.225 28.6157C130.605 28.6157 128.668 28.0392 127.413 26.8864C126.176 25.7336 125.558 24.0502 125.558 21.8361C125.558 19.6404 126.186 17.9661 127.44 16.8133C128.695 15.6422 130.623 15.0566 133.225 15.0566C135.845 15.0566 137.782 15.6422 139.037 16.8133C140.31 17.9661 140.946 19.6404 140.946 21.8361C140.946 24.0502 140.319 25.7336 139.064 26.8864C137.809 28.0392 135.863 28.6157 133.225 28.6157ZM133.225 24.8553C134.073 24.8553 134.682 24.6175 135.052 24.1417C135.439 23.666 135.633 22.8974 135.633 21.8361C135.633 20.7932 135.439 20.0337 135.052 19.558C134.682 19.0639 134.073 18.8169 133.225 18.8169C132.395 18.8169 131.795 19.0639 131.425 19.558C131.057 20.0337 130.872 20.7932 130.872 21.8361C130.872 22.8974 131.057 23.666 131.425 24.1417C131.795 24.6175 132.395 24.8553 133.225 24.8553Z" fill="#FB8351"/>
<path d="M143.233 13.6014V9.86853H148.852V13.6014H143.233ZM143.648 28.3406V19.0909H141.739L142.181 15.3306H148.852V28.3406H143.648Z" fill="white"/>
<path d="M151.347 34.2697V15.3311H155.859L156.108 16.374C156.642 15.9532 157.223 15.633 157.851 15.4135C158.497 15.1755 159.244 15.0566 160.093 15.0566C162.048 15.0566 163.552 15.5506 164.604 16.5387C165.674 17.5085 166.209 19.1646 166.209 21.5067C166.209 23.8307 165.646 25.5963 164.521 26.8041C163.396 28.0118 161.846 28.6155 159.871 28.6155C158.561 28.6155 157.455 28.3686 156.55 27.8745V34.2697H151.347ZM158.543 24.8553C159.3 24.8553 159.881 24.59 160.287 24.0593C160.693 23.5287 160.896 22.7053 160.896 21.589C160.896 20.5095 160.701 19.7776 160.314 19.3933C159.944 19.009 159.373 18.8169 158.597 18.8169C157.823 18.8169 157.141 19.0731 156.55 19.5854V24.1966C156.846 24.4161 157.141 24.5808 157.436 24.6906C157.731 24.8003 158.099 24.8553 158.543 24.8553Z" fill="white"/>
<path d="M173.143 28.6155C172.017 28.6155 170.957 28.5333 169.961 28.3686C168.982 28.2222 168.208 28.0301 167.635 27.7921V24.0867C168.281 24.3796 169.047 24.6082 169.932 24.7729C170.837 24.9376 171.603 25.02 172.229 25.02C172.894 25.02 173.392 25.0017 173.724 24.965C174.075 24.9285 174.249 24.7729 174.249 24.4985C174.249 24.1875 173.946 23.9496 173.337 23.7848C172.728 23.6201 171.963 23.3822 171.04 23.0712C169.84 22.6503 168.945 22.1564 168.355 21.589C167.765 21.0218 167.47 20.1985 167.47 19.1187C167.47 17.8197 167.986 16.8224 169.02 16.1271C170.053 15.4135 171.676 15.0566 173.89 15.0566C174.739 15.0566 175.615 15.1206 176.519 15.2487C177.423 15.3768 178.134 15.5232 178.65 15.6879V19.311C178.096 19.0731 177.487 18.8992 176.824 18.7895C176.178 18.6796 175.588 18.6248 175.052 18.6248C174.462 18.6248 173.936 18.6522 173.475 18.7071C173.013 18.7619 172.783 18.9175 172.783 19.1737C172.783 19.4664 173.042 19.6769 173.559 19.805C174.093 19.9331 174.803 20.1344 175.689 20.4088C176.686 20.7016 177.46 21.0218 178.014 21.3695C178.586 21.7172 178.983 22.1379 179.204 22.6321C179.443 23.1262 179.564 23.739 179.564 24.4711C179.564 25.7886 179.019 26.8132 177.931 27.5451C176.86 28.2587 175.264 28.6155 173.143 28.6155Z" fill="white"/>
<path d="M186.269 28.6151C184.738 28.6151 183.539 28.1852 182.671 27.3251C181.805 26.4651 181.372 25.2025 181.372 23.5373V15.3307H186.574V23.1257C186.574 24.2601 187.156 24.8274 188.317 24.8274C188.742 24.8274 189.158 24.736 189.563 24.553C189.969 24.37 190.292 24.1412 190.532 23.8668V15.3307H195.734V28.3406H190.864L190.726 27.3525C190.21 27.7185 189.572 28.0205 188.817 28.2583C188.078 28.4962 187.229 28.6151 186.269 28.6151Z" fill="white"/>
<path d="M198.213 28.3411V15.3311H203.028L203.166 16.374C203.739 15.9898 204.375 15.6788 205.076 15.4409C205.795 15.1847 206.58 15.0566 207.429 15.0566C208.277 15.0566 208.941 15.1755 209.421 15.4135C209.901 15.6512 210.288 15.9989 210.583 16.4563C211.174 16.0356 211.838 15.697 212.577 15.4409C213.332 15.1847 214.219 15.0566 215.233 15.0566C216.765 15.0566 217.89 15.4591 218.61 16.2642C219.329 17.0511 219.689 18.2588 219.689 19.8873V28.3411H214.568V20.4912C214.568 19.9056 214.449 19.494 214.209 19.256C213.97 18.9998 213.573 18.8718 213.018 18.8718C212.299 18.8718 211.709 19.128 211.248 19.6403C211.284 19.8782 211.303 20.107 211.303 20.3265C211.303 20.5277 211.303 20.7565 211.303 21.0127V28.3411H206.488V20.4088C206.488 19.8782 206.396 19.494 206.211 19.256C206.026 18.9998 205.676 18.8718 205.159 18.8718C204.808 18.8718 204.467 18.9633 204.135 19.1463C203.802 19.3293 203.507 19.5488 203.25 19.805V28.3411H198.213Z" fill="white"/>
<path d="M139.392 50.736C138.006 50.736 136.853 50.4782 135.934 49.9628C135.028 49.4342 134.349 48.7007 133.896 47.7625C133.442 46.8111 133.216 45.7009 133.216 44.4323C133.216 43.0447 133.429 41.8354 133.855 40.8046C134.281 39.7738 134.948 38.9809 135.854 38.4258C136.761 37.8576 137.933 37.5735 139.372 37.5735C140.119 37.5735 140.791 37.6263 141.391 37.732C142.004 37.8378 142.577 37.9831 143.111 38.1682V39.5954C142.577 39.3972 142.011 39.2452 141.411 39.1394C140.811 39.0205 140.179 38.961 139.513 38.961C138.353 38.961 137.433 39.1791 136.754 39.6153C136.075 40.0513 135.588 40.679 135.295 41.4984C135.001 42.3178 134.854 43.2957 134.854 44.4323C134.854 46.0048 135.228 47.2207 135.974 48.0797C136.734 48.9255 137.927 49.3484 139.552 49.3484C140.152 49.3484 140.758 49.302 141.371 49.2095C141.997 49.1171 142.577 48.9718 143.111 48.7735V50.2206C142.59 50.3792 142.024 50.5046 141.411 50.5973C140.811 50.6897 140.139 50.736 139.392 50.736Z" fill="white"/>
<path d="M149.84 50.7354C148.188 50.7354 146.982 50.3191 146.222 49.4866C145.477 48.6408 145.104 47.4249 145.104 45.8391C145.104 44.2664 145.484 43.0573 146.242 42.2115C147.002 41.3657 148.203 40.9428 149.84 40.9428C151.48 40.9428 152.68 41.3657 153.438 42.2115C154.198 43.0573 154.578 44.2664 154.578 45.8391C154.578 47.4249 154.205 48.6408 153.458 49.4866C152.713 50.3191 151.507 50.7354 149.84 50.7354ZM149.84 49.3479C150.973 49.3479 151.773 49.0703 152.239 48.5152C152.706 47.947 152.939 47.055 152.939 45.8391C152.939 44.6232 152.7 43.7379 152.219 43.1828C151.753 42.6145 150.96 42.3304 149.84 42.3304C148.722 42.3304 147.922 42.6145 147.443 43.1828C146.976 43.7379 146.743 44.6232 146.743 45.8391C146.743 47.055 146.976 47.947 147.443 48.5152C147.909 49.0703 148.708 49.3479 149.84 49.3479Z" fill="white"/>
<path d="M156.581 50.5376V49.1699H158.061V50.5376H156.581Z" fill="white"/>
</svg>
